<svg width="92" height="92" viewBox="0 0 92 92" fill="none" xmlns="http://www.w3.org/2000/svg">
<path d="M68.4438 36.7311C68.2454 40.8366 65.2144 46.4583 59.352 53.5934C53.2908 61.0467 48.1626 64.773 43.9676 64.773C41.3698 64.773 39.1698 62.5041 37.3741 57.9646C36.1739 53.8035 34.9752 49.6428 33.7755 45.4817C32.4412 40.9448 31.0106 38.6733 29.481 38.6733C29.1475 38.6733 27.9804 39.3372 25.9823 40.6598L23.8848 38.1034C26.0848 36.2743 28.2555 34.4457 30.3909 32.6146C33.3252 30.2156 35.528 28.9541 36.996 28.8265C40.4657 28.5112 42.6012 30.7549 43.4027 35.5579C44.2689 40.7398 44.8681 43.963 45.2051 45.2246C46.2051 49.5237 47.3053 51.6705 48.5077 51.6705C49.4408 51.6705 50.8424 50.2764 52.7112 47.488C54.5783 44.6988 55.5782 42.5768 55.7133 41.119C55.979 38.7121 54.9786 37.5056 52.7112 37.5056C51.644 37.5056 50.5437 37.738 49.4118 38.1972C51.6025 31.4078 55.7887 28.1105 61.9676 28.2986C66.5483 28.4258 68.7078 31.2364 68.4438 36.7311Z" fill="white"/>
</svg>
